<svg width="25" height="24" viewBox="0 0 25 24" fill="none" xmlns="http://www.w3.org/2000/svg">
<path d="M23.9731 12.3401V12.3169C23.975 12.2977 23.975 12.2782 23.9731 12.259V12.1817V12.1469C23.9749 12.1393 23.9749 12.1314 23.9731 12.1238V12.0349V11.9731C23.9731 11.9151 23.9731 11.8572 23.9925 11.8031C23.9925 11.7528 23.9925 11.7026 24.0118 11.6524V11.5326V11.494C24.0137 11.467 24.0137 11.4399 24.0118 11.4129V11.3897C24.0118 11.3549 24.0118 11.3201 24.0118 11.2815C24.0118 11.2313 24.0118 11.1772 24.0118 11.1154V10.9531V10.8913C24.0118 10.8449 24.0118 10.8024 24.0118 10.7561C24.0118 10.7097 24.0118 10.6324 24.0118 10.5745V10.5397C24.0118 10.5011 24.0118 10.4547 24.0118 10.4122V10.134V10.0452C23.9767 7.36286 22.8823 4.80327 20.9673 2.92471C19.0879 1.07072 16.5602 0.0216719 13.9203 1.82238e-05C13.3009 -0.00115636 12.6827 0.0544507 12.0735 0.166147C13.4787 1.00808 14.691 2.13619 15.6318 3.47719C17.0082 5.44388 17.7435 7.78766 17.7374 10.1881C17.743 12.5885 17.0077 14.9321 15.6318 16.8991C14.2939 18.8242 12.4099 20.3045 10.2229 21.1489C8.86637 21.6676 7.42527 21.9296 5.973 21.9216C3.87155 21.9256 1.80799 21.3623 0 20.2912L0.0270357 20.3144L0.0540832 20.3453L0.123624 20.411L0.251126 20.5308L0.336124 20.6119L0.490663 20.7548L0.594974 20.8476H0.618154L0.718609 20.9364V20.9558C0.745245 20.9798 0.773659 21.0017 0.803607 21.0214L0.884738 21.0871L0.946555 21.1374L1.18224 21.3189L1.23245 21.3576L1.29041 21.4039L1.32518 21.4271H1.3445L1.43722 21.4967L1.46813 21.516L1.51449 21.5508L1.58403 21.601H1.61108L1.7888 21.7246L1.86994 21.7787H1.88926L1.95494 21.8212L2.02448 21.8675L2.13266 21.9371L2.24084 22.0066H2.33356L2.49196 22.1612L2.56924 22.2075L2.71605 22.2925L2.83582 22.3582C3.04445 22.478 3.25694 22.59 3.46943 22.6943L3.60853 22.7639L3.74374 22.8257L4.13009 23.0073L4.22668 23.0498H4.26146L4.39282 23.1039L4.7444 23.2391L4.8603 23.2816L5.39347 23.4632L5.49778 23.498L5.65619 23.5482H5.69869L5.888 23.6023L5.98459 23.6293C6.37094 23.7375 6.75729 23.8263 7.16683 23.8959L7.32909 23.9229L7.49136 23.9461L7.65749 23.9693C8.31408 24.062 8.97637 24.1085 9.63948 24.1084C10.3039 24.1086 10.9675 24.0621 11.6253 23.9693L11.7799 23.9461L23.9693 12.3633C23.9716 12.36 23.9732 12.3561 23.9739 12.3521C23.9745 12.3481 23.9743 12.344 23.9731 12.3401Z" fill="#1C4B70"/>
</svg>
